<svg width="32" height="32" viewBox="0 0 32 32" fill="none" xmlns="http://www.w3.org/2000/svg">
  <rect width="32" height="32" rx="6" fill="#1e293b"/>
  <path d="M10 8V12C10 15.3137 12.6863 18 16 18C19.3137 18 22 15.3137 22 12V8H10Z" fill="#fbbf24"/>
  <path d="M8 10C6.89543 10 6 10.8954 6 12V14C6 15.1046 6.89543 16 8 16H10V10H8Z" stroke="#fbbf24" stroke-width="2"/>
  <path d="M24 10C25.1046 10 26 10.8954 26 12V14C26 15.1046 25.1046 16 24 16H22V10H24Z" stroke="#fbbf24" stroke-width="2"/>
  <path d="M16 18V22" stroke="#fbbf24" stroke-width="2" stroke-linecap="round"/>
  <path d="M12 24H20" stroke="#fbbf24" stroke-width="2" stroke-linecap="round"/>
</svg>
